<svg width="2048" height="2048" viewBox="0 0 2048 2048" fill="none" xmlns="http://www.w3.org/2000/svg">
<g clip-path="url(#clip0)">
<path d="M1005.11 1314.69L665.033 1473.39L2.38268 1111.94L340.074 967.055L90.6864 846.14L801.063 581.638L1042.89 717.668L1231.82 589.196L1957.31 853.697L1705.23 974.352L2040.44 1110.64L1390.52 1473.39L1005.11 1314.69Z" fill="black"/>
<path d="M1367.85 1420.49L1012.66 1307.13L1005.11 1299.57L687.705 1420.49L7.55713 1050.18L332.517 959.498L90.6863 800.797L808.62 574.081L1020.22 710.111L1239.38 574.081L1964.87 800.797L1700.37 974.613L2048 1050.18L1367.85 1420.49Z" fill="white" stroke="#CDCACA" stroke-width="10"/>
<path d="M1005.11 1299.57L324.959 959.498L1020.22 710.111L1700.37 974.613L1005.11 1299.57Z" stroke="#CDCACA" stroke-width="10"/>
</g>
<defs>
<clipPath id="clip0">
<rect width="2048" height="2048" fill="white"/>
</clipPath>
</defs>
</svg>
